<svg width="18" height="13" viewBox="0 0 18 13" fill="none" xmlns="http://www.w3.org/2000/svg">
<path d="M17.4371 3.9577C17.5909 3.79357 17.719 3.59064 17.814 3.36051C17.909 3.13039 17.9691 2.87756 17.9908 2.61647C18.0347 2.08918 17.9197 1.56024 17.6711 1.14602C17.4224 0.731795 17.0606 0.46622 16.6651 0.407715C16.2696 0.34921 15.8729 0.502568 15.5622 0.834052L9 7.83327L2.43782 0.834051C2.12714 0.502567 1.73041 0.349209 1.33492 0.407714C0.939421 0.466219 0.577557 0.731794 0.328928 1.14602C0.0802993 1.56024 -0.0347253 2.08918 0.00915708 2.61647C0.0530375 3.14376 0.252231 3.62622 0.562918 3.9577L8.06255 11.9568C8.32858 12.2408 8.65921 12.3955 9 12.3955C9.34079 12.3955 9.67142 12.2408 9.93745 11.9568L17.4371 3.9577Z" fill="#36D4D8"/>
</svg>
